<svg width="127" height="36" viewBox="0 0 127 36" fill="none" xmlns="http://www.w3.org/2000/svg">
<rect width="127" height="36" rx="18" fill="black"/>
<circle cx="105" cy="19" r="9" fill="#0A0A0A"/>
<g opacity="0.7">
<path d="M104.965 24.1166C107.723 24.1166 109.955 21.8384 109.955 19.0345C109.955 16.2306 107.723 13.9524 104.965 13.9524C102.206 13.9524 99.9743 16.2306 99.9743 19.0345C99.9743 21.8384 102.206 24.1166 104.965 24.1166Z" fill="url(#paint0_radial_102_2)"/>
<path d="M104.965 24.1166C107.723 24.1166 109.955 21.8384 109.955 19.0345C109.955 16.2306 107.723 13.9524 104.965 13.9524C102.206 13.9524 99.9743 16.2306 99.9743 19.0345C99.9743 21.8384 102.206 24.1166 104.965 24.1166Z" fill="url(#paint1_angular_102_2)"/>
<path d="M104.965 24.1166C107.723 24.1166 109.955 21.8384 109.955 19.0345C109.955 16.2306 107.723 13.9524 104.965 13.9524C102.206 13.9524 99.9743 16.2306 99.9743 19.0345C99.9743 21.8384 102.206 24.1166 104.965 24.1166Z" fill="url(#paint2_angular_102_2)"/>
<path d="M104.965 24.1166C107.723 24.1166 109.955 21.8384 109.955 19.0345C109.955 16.2306 107.723 13.9524 104.965 13.9524C102.206 13.9524 99.9743 16.2306 99.9743 19.0345C99.9743 21.8384 102.206 24.1166 104.965 24.1166Z" stroke="#080F21" stroke-width="0.321951"/>
</g>
<line opacity="0.7" x1="104.965" y1="14.1134" x2="104.965" y2="23.9556" stroke="black" stroke-width="0.804878"/>
<defs>
<radialGradient id="paint0_radial_102_2" cx="0" cy="0" r="1" gradientUnits="userSpaceOnUse" gradientTransform="translate(104.965 19.0345) rotate(90) scale(4.92112 4.82927)">
<stop offset="0.213542"/>
<stop offset="0.270833" stop-color="#081A32"/>
<stop offset="0.395833" stop-color="#1F3A58"/>
<stop offset="0.515625" stop-color="#375F90"/>
<stop offset="0.713542" stop-color="#274871"/>
<stop offset="0.916667" stop-color="#0D1528"/>
</radialGradient>
<radialGradient id="paint1_angular_102_2" cx="0" cy="0" r="1" gradientUnits="userSpaceOnUse" gradientTransform="translate(104.965 19.0345) rotate(90) scale(4.92112 4.82927)">
<stop offset="0.411458" stop-opacity="0"/>
<stop offset="0.510417"/>
<stop offset="0.817708" stop-opacity="0"/>
</radialGradient>
<radialGradient id="paint2_angular_102_2" cx="0" cy="0" r="1" gradientUnits="userSpaceOnUse" gradientTransform="translate(104.965 19.0345) rotate(90) scale(4.92112 4.82927)">
<stop/>
<stop offset="0.166667" stop-opacity="0"/>
<stop offset="0.885417" stop-opacity="0"/>
</radialGradient>
</defs>
</svg>
